:SAMPLES-PER-SECOND 30
:FULLY-SPECIFIED
:DEGREES
665
root  75.3928 37.8906 1.23806 44.6792 80.8395 53.1674
RightUpLeg  -3.34515 0.932364 -12.7764
RightLeg  57.9139 4.64034 7.50896
RightFoot  -6.1253 -0.694991 14.2734
RightToes  3.49245e-010 0 -3.6325e-017
Spine  4.63765 1.35796 -0.00853641
Spine1  9.51226 2.98323 -9.07013
HEad  -19.1361 6.61705 -6.4923
LeftShoulder1  -0.702661 5.19723 -35.293
LeftArm  10.0326 8.09073 -38.5114
LeftForeArm  19.0578 -24.6096 -4.24154
LeftHand  -0.0274916 6.81195 0.740701
RightShoulder  -1.00307 -6.28575 29.5053
RightArm  12.9946 -13.933 44.9489
RightForeArm  21.4318 10.1804 6.12488
RightHand  -0.112353 4.7413 -1.57173
LeftUpLeg  -8.24878 3.46729 -8.71715
LeftLeg  18.1753 5.99633 1.81994
LeftFoot  -0.336939 -0.501178 5.22342
LeftToes  -5.6298e-010 8.41567e-011 -1.83319e-011
666
root  76.0114 38.032 1.29418 50.851 81.9963 58.8543
RightUpLeg  -6.15566 1.25946 -12.2856
RightLeg  57.3709 4.12615 6.49203
RightFoot  -5.80424 -0.66013 12.7548
RightToes  3.49245e-010 0 -3.6325e-017
Spine  4.5448 1.00377 -0.64437
Spine1  9.57879 2.43554 -8.07643
HEad  -20.2693 7.43225 -6.84212
LeftShoulder1  -0.64581 5.07853 -34.8326
LeftArm  10.0098 7.69492 -38.708
LeftForeArm  19.1169 -26.6822 -4.7288
LeftHand  -0.0220589 6.62891 1.09923
RightShoulder  -0.992026 -6.2591 29.4497
RightArm  13.4564 -14.6943 44.8397
RightForeArm  21.2109 12.1166 5.67088
RightHand  -0.0225052 3.00698 -0.533949
LeftUpLeg  -7.39616 2.75619 -8.54395
LeftLeg  17.5441 5.41359 1.71188
LeftFoot  -0.813552 -0.499348 5.46838
LeftToes  -5.6298e-010 8.41567e-011 -1.83319e-011
667
root  76.5576 38.1822 1.48579 59.1962 83.2262 66.1821
RightUpLeg  -9.0068 2.62937 -11.3884
RightLeg  54.1493 4.47097 6.22713
RightFoot  -6.93199 -0.486654 11.3388
RightToes  3.49245e-010 0 -3.6325e-017
Spine  4.12177 0.836634 -2.1151
Spine1  9.41789 1.8256 -6.07005
HEad  -20.7575 7.66984 -6.64045
LeftShoulder1  -0.630642 5.04721 -34.6834
LeftArm  7.11752 8.89753 -38.5227
LeftForeArm  22.9115 -31.1565 -5.5269
LeftHand  -0.0159479 7.65098 1.25239
RightShoulder  -1.00805 -6.29841 29.5215
RightArm  13.8554 -14.6337 44.849
RightForeArm  21.2938 13.2382 5.41555
RightHand  0.0213347 2.87588 0.116155
LeftUpLeg  -7.17277 3.02664 -7.71752
LeftLeg  16.7779 3.58437 0.976137
LeftFoot  -1.1418 -0.489732 5.55994
LeftToes  -5.6298e-010 8.41567e-011 -1.83319e-011
668
root  77.0768 38.3014 1.6876 74.041 84.4366 79.8614
RightUpLeg  -11.0446 5.31768 -10.505
RightLeg  48.2942 4.66535 5.30516
RightFoot  -8.56093 -0.312128 10.6253
RightToes  3.49245e-010 0 -3.6325e-017
Spine  3.54997 0.6023 -2.82111
Spine1  9.17497 1.34175 -4.79742
HEad  -20.9456 7.44365 -6.35372
LeftShoulder1  -0.614356 5.00897 -34.6408
LeftArm  7.36395 7.2389 -38.7488
LeftForeArm  23.0307 -30.8739 -5.46503
LeftHand  -0.0230885 6.38139 1.24692
RightShoulder  -1.02227 -6.3358 29.5488
RightArm  13.6059 -13.8978 45.2597
RightForeArm  19.7049 12.8156 5.57613
RightHand  -0.107112 4.31417 -1.58074
LeftUpLeg  -7.39191 3.33235 -6.78022
LeftLeg  16.3925 1.51613 0.279999
LeftFoot  -1.4715 -0.490909 5.78537
LeftToes  -5.6298e-010 8.41567e-011 -1.83319e-011
669
root  77.5687 38.4063 1.9777 103.813 85.5508 108.352
RightUpLeg  -12.2199 9.60944 -9.31785
RightLeg  40.6389 4.00917 3.40796
RightFoot  -10.1968 -0.178176 10.5124
RightToes  3.49245e-010 0 -3.6325e-017
Spine  2.90984 0.243175 -3.42745
Spine1  8.96786 0.62535 -3.06182
HEad  -21.1073 7.2247 -6.32175
LeftShoulder1  -0.586272 4.94332 -34.5544
LeftArm  6.58706 7.25548 -38.6105
LeftForeArm  24.655 -33.1978 -5.93755
LeftHand  -0.0289696 6.41668 0.616185
RightShoulder  -1.06548 -6.43039 29.8708
RightArm  13.6271 -11.681 45.5548
RightForeArm  19.0909 10.7189 6.22487
RightHand  -0.177352 5.47695 -2.20265
LeftUpLeg  -8.15813 3.96769 -5.19302
LeftLeg  16.6649 -1.76535 -0.708569
LeftFoot  -1.83443 -0.511016 6.27106
LeftToes  -5.6298e-010 8.41567e-011 -1.83319e-011
670
root  78.0118 38.4455 2.16193 134.919 85.0326 138.585
RightUpLeg  -12.7235 16.0661 -9.18846
RightLeg  33.111 4.18878 2.6793
RightFoot  -11.0182 -0.0941943 6.94717
RightToes  3.49245e-010 0 -3.6325e-017
Spine  2.82022 -0.0713 -2.52881
Spine1  8.76612 0.46489 -3.40546
HEad  -22.1492 9.04261 -7.0444
LeftShoulder1  -0.566169 4.89576 -34.5044
LeftArm  6.6697 6.52787 -38.4341
LeftForeArm  24.7214 -34.3439 -6.2288
LeftHand  -0.0249069 6.08085 0.96667
RightShoulder  -1.0673 -6.43536 29.871
RightArm  13.5625 -9.65222 46.3449
RightForeArm  17.6796 9.1605 6.68647
RightHand  -0.232714 5.73206 -2.72486
LeftUpLeg  -8.85102 3.57415 -4.3179
LeftLeg  17.3574 -3.76386 -1.10136
LeftFoot  -2.52222 -0.439895 5.88915
LeftToes  -5.6298e-010 8.41567e-011 -1.83319e-011
